<?xml version="1.0" encoding="utf-8"?>
<!-- Generator: Adobe Illustrator 19.0.0, SVG Export Plug-In . SVG Version: 6.00 Build 0)  -->
<svg version="1.1" id="Layer_1" xmlns="http://www.w3.org/2000/svg" xmlns:xlink="http://www.w3.org/1999/xlink" x="0px" y="0px"
	 width="1019.3px" height="105.9px" viewBox="88 547.8 1019.3 105.9" style="enable-background:new 88 547.8 1019.3 105.9;"
	 xml:space="preserve">
<style type="text/css">
	.st0{fill:#2E4099;}
</style>
<g id="XMLID_28_">
	<path id="XMLID_46_" class="st0" d="M694.5,549.7h-32.1l-38.8,102.2h28.2l7.4-21.6h36.6l2.5,7.3c3.5,10.5,8.9,14.3,21,14.3H734
		L694.5,549.7z M666.1,608.2l12-33.4l11.2,33.4H666.1z"/>
	<path id="XMLID_43_" class="st0" d="M464.4,547.8c-25.1,0-50.1,17.2-50.1,52.5c0,34.3,20.9,53.4,50.1,53.4
		c26.6,0,50.5-17.5,50.5-53.4C514.9,566.6,493.9,547.8,464.4,547.8z M464.4,628.2c-15.6,0-21-10.9-21-27.9c0-17.4,7.7-27.1,21-27.1
		c15.6,0,21.3,10.9,21.3,27.1C485.7,618,478.1,628.2,464.4,628.2z"/>
	<path id="XMLID_40_" class="st0" d="M600.9,613.3c10.9-5.1,16.8-15.9,16.8-28.5c0-23.1-13.6-35.2-42.6-35.2h-44.7v102.2h28v-32.5
		h17.5l8,17.7c4.5,10.1,9.6,14.9,22.5,14.9h15L600.9,613.3z M571,596.7h-12.6v-24h13.4c12.4,0,16.6,3.5,16.6,12
		S583.5,596.7,571,596.7z"/>
	<path id="XMLID_39_" class="st0" d="M998.9,549.7h28.3l26.4,46.4l25.1-46.4h14.7c10.1,0,13.9,4.7,13.9,13.9v88.3h-26.9v-61.5
		l-17.7,32.1h-19.4l-17.8-32.1v61.4h-26.7V549.7H998.9z"/>
	<path id="XMLID_38_" class="st0" d="M949.1,549.7h15.3c9.5,0,13.6,4.7,13.6,13.9v88.3h-28.9L949.1,549.7L949.1,549.7z"/>
	<path id="XMLID_37_" class="st0" d="M936.9,574.9h-30.2v76.9h-28.9v-76.9h-31.4v-25.2h76.8c9.6,0,13.7,4.7,13.7,13.9L936.9,574.9
		L936.9,574.9z"/>
	<path id="XMLID_36_" class="st0" d="M742.3,549.7h25.8l39.1,58.4v-58.4h13.1c9.6,0,13.7,4.7,13.7,13.9v88.3h-25.5l-39.4-56.6v56.6
		h-26.9V549.7H742.3z"/>
	<path id="XMLID_35_" class="st0" d="M407.6,574.9h-30.2v76.9h-28.9v-76.9h-31.4v-25.2h76.8c9.6,0,13.7,4.7,13.7,13.9L407.6,574.9
		L407.6,574.9z"/>
	<path id="XMLID_32_" class="st0" d="M259.8,547.8c-25.1,0-50.1,17.2-50.1,52.5c0,34.3,20.9,53.4,50.1,53.4
		c26.6,0,50.5-17.5,50.5-53.4C310.3,566.6,289.2,547.8,259.8,547.8z M259.8,628.2c-15.6,0-21-10.9-21-27.9c0-17.4,7.7-27.1,21-27.1
		c15.6,0,21.3,10.9,21.3,27.1C281.1,618,273.5,628.2,259.8,628.2z"/>
	<g id="XMLID_29_">
		<path id="XMLID_31_" class="st0" d="M130.6,563.8c-3.5-10.5-10.8-14.2-22.9-14.2h-15l34.9,85.4c4.8,11.8,11.4,18.1,23.4,18.1
			c3.5,0,6.5-0.5,9.2-1.6L130.6,563.8z"/>
		<path id="XMLID_30_" class="st0" d="M178.2,549.7l-21.4,57.6c-1.3,3.4-1.3,7.2-0.2,10.7l9.9,29.3c2.8-2.7,5.1-6.5,7-11.2l35-86.4
			H178.2z"/>
	</g>
</g>
</svg>
